<svg xmlns="http://www.w3.org/2000/svg" xmlns:xlink="http://www.w3.org/1999/xlink" width="400" height="400" viewBox="0 0 400 400"><defs><linearGradient id="gradient-19"><stop stop-color="#905e25" offset="0"/><stop stop-color="#f5ec8b" offset="0.5"/><stop stop-color="#905e36" offset="1"/></linearGradient></defs>
<rect data-name="background" width="100%" height="100%" fill="#5b5b5b"/><g data-name="watermark" class="watermark-logodesign" stroke="#ffffff" transform="translate(10, 320) scale(1.5) rotate(-45)" style="opacity:0.040000010281801224;"><path fill="#000000" d="M22.92,19.2q3.04,1.68,4.8,4.7t1.76,6.78t-1.76,6.78t-4.8,4.7t-6.68,1.68t-6.7-1.68t-4.84-4.7t-1.78-6.78t1.78-6.78t4.84-4.7t6.7-1.68t6.68,1.68z M11.14,21.74q-2.26,1.3-3.54,3.62t-1.28,5.32t1.28,5.32t3.54,3.6t5.1,1.28t5.08-1.28t3.52-3.6t1.28-5.32t-1.28-5.32t-3.54-3.62t-5.06-1.3q-2.84,0-5.1,1.3z M21.4,24.76l-1.8,2.32q-0.72-0.56-1.4-0.78t-1.48-0.22q-1.44,0-2.3,1.1t-0.86,3.46q0,2.32,0.82,3.44t2.26,1.12q0.96,0,1.74-0.3t1.54-0.9l1.64,2.44q-2.24,2.04-5.2,2.04q-3.2,0-5.08-2.04t-1.88-5.8q0-2.4,0.9-4.16t2.48-2.7t3.54-0.94q2.92,0,5.08,1.92z M41.2,20.32l0,22.96l10.96,0l-0.64,4.72l-16.2,0l0-27.68l5.88,0z M71.92,29.14q2.68,2.98,2.68,8.26q0,3.36-1.22,5.9t-3.52,3.94t-5.42,1.4q-4.76,0-7.46-2.98t-2.7-8.26q0-3.36,1.22-5.9t3.52-3.94t5.46-1.4q4.76,0,7.44,2.98z M61.26,32.1q-1.06,1.7-1.06,5.3t1.06,5.3t3.18,1.7t3.18-1.7t1.06-5.3t-1.04-5.3t-3.16-1.7q-2.16,0-3.22,1.7z M97.88,27.96q-2.08,0.8-6.12,0.8q2,0.88,2.96,2.18t0.96,3.26q0,2.04-1.06,3.66t-3.04,2.54t-4.62,0.92q-1.4,0-2.48-0.28q-0.8,0.52-0.8,1.4q0,0.64,0.5,1.02t1.94,0.38l3.24,0q2.36,0,4.14,0.78t2.76,2.16t0.98,3.14q0,3.24-2.78,5.06t-8.02,1.82q-3.76,0-5.94-0.78t-3.06-2.26t-0.88-3.72l5.08,0q0,1.04,0.4,1.66t1.46,0.92t3.06,0.3q2.76,0,3.86-0.68t1.1-1.92q0-1.12-0.84-1.72t-2.48-0.6l-3.12,0q-3.16,0-4.72-1.18t-1.56-2.98q0-1.12,0.66-2.18t1.82-1.78q-1.96-1.08-2.86-2.54t-0.9-3.5q0-2.32,1.14-4.06t3.2-2.68t4.7-0.94q3.28,0.08,5.4-0.56t4.52-2z M84.14,30.98q-0.94,1.02-0.94,2.78q0,1.8,0.94,2.84t2.58,1.04q1.72,0,2.6-1t0.88-2.96q0-3.72-3.52-3.72q-1.6,0-2.54,1.02z M117.04,29.14q2.68,2.98,2.68,8.26q0,3.36-1.22,5.9t-3.52,3.94t-5.42,1.4q-4.76,0-7.46-2.98t-2.7-8.26q0-3.36,1.22-5.9t3.52-3.94t5.46-1.4q4.76,0,7.44,2.98z M106.38,32.1q-1.06,1.7-1.06,5.3t1.06,5.3t3.18,1.7t3.18-1.7t1.06-5.3t-1.04-5.3t-3.16-1.7q-2.16,0-3.22,1.7z M141.78,23.26q3.9,2.94,3.9,10.78q0,7.68-3.82,10.82t-9.78,3.14l-7.92,0l0-27.68l7.24,0q6.48,0,10.38,2.94z M130.04,24.64l0,19.04l2.4,0q3.4,0,5.26-2.1t1.86-7.54q0-3.76-0.94-5.84t-2.5-2.82t-3.8-0.74l-2.28,0z M167.84,39.12l-13.24,0q0.28,2.88,1.56,4.08t3.48,1.2q1.36,0,2.56-0.44t2.6-1.4l2.36,3.2q-3.56,2.88-8.04,2.88q-5,0-7.68-3t-2.68-8.12q0-3.24,1.14-5.82t3.32-4.06t5.18-1.48q4.52,0,7.04,2.84t2.52,7.92q0,0.4-0.12,2.2z M162.32,35.32q0-5.28-3.8-5.28q-1.76,0-2.74,1.3t-1.18,4.22l7.72,0l0-0.24z M186.8,28.72l-2.16,3.24q-2.68-1.68-5.28-1.68q-1.4,0-2.16,0.52t-0.76,1.4q0,0.64,0.34,1.08t1.28,0.84t2.82,0.96q3.36,0.92,5,2.46t1.64,4.22q0,2.12-1.22,3.68t-3.3,2.38t-4.64,0.82q-2.68,0-4.88-0.82t-3.76-2.26l2.8-3.12q2.68,2.08,5.68,2.08q1.6,0,2.54-0.62t0.94-1.7q0-0.84-0.36-1.32t-1.32-0.9t-3-0.98q-3.2-0.88-4.74-2.5t-1.54-4.02q0-1.8,1.04-3.24t2.94-2.26t4.42-0.82q4.48,0,7.68,2.56z M196.92,26.8l0,21.2l-5.68,0l0-21.2l5.68,0z M196.54,16.82q0.98,0.94,0.98,2.38t-0.98,2.38t-2.5,0.94t-2.48-0.94t-0.96-2.38t0.96-2.38t2.48-0.94t2.5,0.94z M221.48,27.96q-2.08,0.8-6.12,0.8q2,0.88,2.96,2.18t0.96,3.26q0,2.04-1.06,3.66t-3.04,2.54t-4.62,0.92q-1.4,0-2.48-0.28q-0.8,0.52-0.8,1.4q0,0.64,0.5,1.02t1.94,0.38l3.24,0q2.36,0,4.14,0.78t2.76,2.16t0.98,3.14q0,3.24-2.78,5.06t-8.02,1.82q-3.76,0-5.94-0.78t-3.06-2.26t-0.88-3.72l5.08,0q0,1.04,0.4,1.66t1.46,0.92t3.06,0.3q2.76,0,3.86-0.68t1.1-1.92q0-1.12-0.84-1.72t-2.48-0.6l-3.12,0q-3.16,0-4.72-1.18t-1.56-2.98q0-1.12,0.66-2.18t1.82-1.78q-1.96-1.08-2.86-2.54t-0.9-3.5q0-2.32,1.14-4.06t3.2-2.68t4.7-0.94q3.28,0.08,5.4-0.56t4.52-2z M207.74,30.98q-0.94,1.02-0.94,2.78q0,1.8,0.94,2.84t2.58,1.04q1.72,0,2.6-1t0.88-2.96q0-3.72-3.52-3.72q-1.6,0-2.54,1.02z M240.48,27.86q1.56,1.7,1.56,4.7l0,15.44l-5.68,0l0-14.48q0-1.72-0.58-2.42t-1.74-0.7q-1.2,0-2.18,0.74t-1.9,2.22l0,14.64l-5.68,0l0-21.2l4.92,0l0.44,2.68q1.32-1.64,2.9-2.48t3.58-0.84q2.8,0,4.36,1.7z M251.84,42.8q1,1,1,2.4t-1,2.42t-2.44,1.02q-1.4,0-2.4-1.02t-1-2.42t1-2.4t2.4-1q1.44,0,2.44,1z M271.8,48l-1.56-6.2l-8.68,0l-1.56,6.2l-6.12,0l8.52-27.68l7.16,0l8.48,27.68l-6.24,0z M262.68,37.44l6.44,0l-3.24-12.76z M286.48,20.32l0,27.68l-5.88,0l0-27.68l5.88,0z"/></g><g data-name="icon" fill="url(#gradient-19)" data="id:6959086" transform="translate(127.24857325589387,98.32545104726469) scale(1.455003780102844)">
  
 <path d="m17.309 14.051v0zm45.176 77.008h-41.801v1.2578c0 0.34375 0.14062 0.66016 0.37109 0.88672 0.23047 0.23047 0.54297 0.37109 0.88672 0.37109h39.281c0.34375 0 0.66016-0.14062 0.88672-0.37109 0.23047-0.23047 0.37109-0.54297 0.37109-0.88672v-1.2578zm-1.9375-2.4609 1.8359-23.125-41.602-0.003906 1.8359 23.125h37.926zm-17.148-13.492c0.46484 0.46484 0.75 1.1055 0.75 1.8125s-0.28516 1.3477-0.75 1.8125c-0.46484 0.46484-1.1055 0.75-1.8125 0.75-0.70703 0-1.3477-0.28516-1.8125-0.75-0.46484-0.46484-0.75-1.1055-0.75-1.8125s0.28516-1.3477 0.75-1.8125c0.46484-0.46484 1.1055-0.75 1.8125-0.75 0.70703 0 1.3477 0.28516 1.8125 0.75zm-1.8125-3.2109c1.3867 0 2.6445 0.5625 3.5547 1.4727 0.91016 0.91016 1.4727 2.1641 1.4727 3.5547 0 1.3867-0.5625 2.6445-1.4727 3.5547-0.91016 0.91016-2.1641 1.4727-3.5547 1.4727-1.3867 0-2.6445-0.5625-3.5547-1.4727-0.91016-0.91016-1.4727-2.1641-1.4727-3.5547 0-1.3867 0.5625-2.6445 1.4727-3.5547 0.91016-0.91016 2.1641-1.4727 3.5547-1.4727zm6.6328-41.246c-1.7422-1.7422-4.1523-2.8242-6.8164-2.8242-2.6602 0-5.0703 1.0781-6.8164 2.8242-1.7461 1.7422-2.8242 4.1523-2.8242 6.8164 0 2.6602 1.0781 5.0703 2.8242 6.8164 1.7422 1.7461 4.1523 2.8242 6.8164 2.8242 2.6602 0 5.0703-1.0781 6.8164-2.8242 1.7422-1.7422 2.8242-4.1523 2.8242-6.8164 0-2.6602-1.0781-5.0703-2.8242-6.8164zm-34.367 59.961v-22.469c0-2.5508 1.2578-5.6328 3.25-7.9688 1.6914-1.9844 3.8945-3.3984 6.2578-3.3984h36.07c2.3906 0 4.6133 1.3672 6.3086 3.3008 1.9648 2.2422 3.1992 5.2109 3.1992 7.7344v22.797h-3.9961v-0.78125c0-0.67969-0.55078-1.2305-1.2305-1.2305h-0.70313l1.9297-24.262c0.054688-0.67578-0.45312-1.2695-1.1289-1.3203-0.03125-0.003907-0.0625-0.003907-0.097656-0.003907h-44.262c-0.67969 0-1.2305 0.55078-1.2305 1.2305 0 0.050781 0.003906 0.10156 0.007812 0.14844l1.9219 24.207h-0.70313c-0.67969 0-1.2305 0.55078-1.2305 1.2305v0.78125h-4.3672zm12.449-81.434c1.9375 1.9375 3.1367 4.6172 3.1367 7.5742s-1.1992 5.6367-3.1367 7.5742-4.6172 3.1367-7.5742 3.1367c-2.957 0-5.6367-1.1992-7.5742-3.1367s-3.1367-4.6172-3.1367-7.5742 1.1992-5.6367 3.1367-7.5742 4.6172-3.1367 7.5742-3.1367c2.957 0 5.6367 1.1992 7.5742 3.1367zm60.941 10.273c-2.9297-2.9297-6.9805-4.7422-11.449-4.7422-4.4727 0-8.5195 1.8125-11.449 4.7422-2.9297 2.9297-4.7422 6.9805-4.7422 11.449 0 4.4727 1.8125 8.5195 4.7422 11.449 2.9297 2.9297 6.9805 4.7422 11.449 4.7422 4.4727 0 8.5195-1.8125 11.449-4.7422 2.9297-2.9297 4.7422-6.9805 4.7422-11.449 0-4.4727-1.8125-8.5195-4.7422-11.449zm-3.4805 3.4805c2.0391 2.0391 3.3008 4.8555 3.3008 7.9688 0 3.1133-1.2617 5.9297-3.3008 7.9688-2.0391 2.0391-4.8555 3.3008-7.9688 3.3008s-5.9297-1.2617-7.9688-3.3008c-2.0391-2.0391-3.3008-4.8555-3.3008-7.9688 0-3.1133 1.2617-5.9297 3.3008-7.9688 2.0391-2.0391 4.8555-3.3008 7.9688-3.3008s5.9297 1.2617 7.9688 3.3008zm-7.9688-5.7617c3.793 0 7.2227 1.5352 9.7109 4.0234 2.4844 2.4844 4.0234 5.918 4.0234 9.7109 0 3.7891-1.5352 7.2227-4.0234 9.7109-2.4844 2.4844-5.918 4.0234-9.7109 4.0234-3.7891 0-7.2227-1.5352-9.7109-4.0234-2.4844-2.4844-4.0234-5.918-4.0234-9.7109 0-3.7891 1.5352-7.2227 4.0234-9.7109 2.4844-2.4844 5.918-4.0234 9.7109-4.0234zm-1.2305 6.0742c0-0.67969 0.55078-1.2305 1.2305-1.2305 0.67969 0 1.2305 0.55078 1.2305 1.2305v6.9883l4.418 2.8633c0.56641 0.36719 0.73047 1.1289 0.35938 1.6953-0.36719 0.56641-1.1289 0.73047-1.6953 0.35938l-4.8945-3.1719c-0.38672-0.20703-0.64844-0.61328-0.64844-1.0859v-7.6562zm13.344 58.66h-13.43v6.0273c0 1.6562 0.67969 3.1602 1.7734 4.2539s2.5977 1.7734 4.2539 1.7734h1.375c1.6562 0 3.1602-0.67969 4.2539-1.7734l0.035157-0.035156c0.34766-0.35156 0.65234-0.75 0.90625-1.1797h0.37891c1.125 0 2.1445-0.46094 2.8867-1.1992 0.73828-0.73828 1.1992-1.7617 1.1992-2.8867v-2.8516c0-0.67969-0.55078-1.2305-1.2305-1.2305h-2.3984v-0.90234zm-0.023438 6.5508c0.015626-0.17188 0.023438-0.34766 0.023438-0.52344v-2.6641h1.1719v1.6211c0 0.44531-0.18359 0.85156-0.47656 1.1445-0.19531 0.19531-0.44141 0.34375-0.71484 0.41797zm-10.031-19.934c0.38281-0.55859 1.1445-0.70312 1.707-0.32031 0.55859 0.38281 0.70312 1.1445 0.32031 1.707-0.375 0.54688-0.5625 1.0352-0.5625 1.4688 0 0.38672 0.16016 0.76953 0.48438 1.1523 0.71484 0.84375 1.0703 1.7578 1.0703 2.7383 0 0.9375-0.33203 1.8867-0.99219 2.8516-0.38281 0.55859-1.1445 0.70312-1.707 0.32031-0.55859-0.38281-0.70312-1.1445-0.32031-1.707 0.375-0.54688 0.5625-1.0352 0.5625-1.4688 0-0.38672-0.16016-0.76953-0.48437-1.1523-0.71484-0.84375-1.0703-1.7578-1.0703-2.7383 0-0.9375 0.33203-1.8867 0.99219-2.8516zm5.1016 0c0.38281-0.55859 1.1445-0.70312 1.707-0.32031 0.55859 0.38281 0.70312 1.1445 0.32031 1.707-0.375 0.54688-0.5625 1.0352-0.5625 1.4688 0 0.38672 0.16016 0.76953 0.48438 1.1523 0.71484 0.84375 1.0703 1.7578 1.0703 2.7383 0 0.9375-0.33203 1.8867-0.99219 2.8516-0.38281 0.55859-1.1445 0.70312-1.707 0.32031-0.55859-0.38281-0.70313-1.1445-0.32031-1.707 0.375-0.54688 0.5625-1.0352 0.5625-1.4688 0-0.38672-0.16016-0.76953-0.48438-1.1523-0.71484-0.84375-1.0703-1.7578-1.0703-2.7383 0-0.9375 0.33203-1.8867 0.99219-2.8516zm-62.996-44.57c0 0.67969-0.55078 1.2305-1.2305 1.2305-0.67969 0-1.2305-0.55078-1.2305-1.2305v-0.88672c-0.57422-0.19141-1.0898-0.51562-1.5078-0.93359-0.69922-0.69922-1.1367-1.668-1.1367-2.7383 0-0.67969 0.55078-1.2305 1.2305-1.2305 0.67969 0 1.2305 0.55078 1.2305 1.2305 0 0.39062 0.15625 0.74219 0.41406 1 0.25781 0.25781 0.60547 0.41406 0.99609 0.41406h0.007813c0.38672 0 0.73438-0.15625 0.98438-0.41016 0.26172-0.26172 0.42578-0.62109 0.42969-1.0117 0.011719-0.88672-0.82812-1.1367-1.6875-1.3906-1.75-0.51953-3.5352-1.0508-3.5977-3.8594-0.003906-0.16016-0.003906 0.050782-0.003906-0.082031 0-1.0469 0.43359-1.9922 1.1289-2.6797 0.42188-0.41797 0.9375-0.73828 1.5156-0.93359v-0.89062c0-0.67969 0.55078-1.2305 1.2305-1.2305 0.67969 0 1.2305 0.55078 1.2305 1.2305v0.88672c0.57422 0.19141 1.0898 0.51562 1.5078 0.93359 0.69922 0.69922 1.1367 1.668 1.1367 2.7383 0 0.67969-0.55078 1.2305-1.2305 1.2305s-1.2305-0.55078-1.2305-1.2305c0-0.39062-0.15625-0.74219-0.41406-1-0.25391-0.25391-0.60938-0.41406-1-0.41406h-0.046875l-0.03125-0.003906c-0.36328 0.019531-0.69531 0.17578-0.9375 0.41797-0.24219 0.24219-0.39453 0.57422-0.39453 0.94141 0 0.125-0.003906 0.015625-0.003906 0v0.03125c0.023438 1.0156 0.94141 1.2852 1.8398 1.5547 1.7539 0.51953 3.4766 1.0312 3.4453 3.7656-0.011718 1.0703-0.44531 2.0391-1.1406 2.7344-0.41797 0.41797-0.92578 0.73828-1.4961 0.92969v0.88672z" fill-rule="evenodd"/>

  </g><g data-name="business_name" fill="url(#gradient-19)" data="id:196" transform="translate(64.28000320949907,228.21743095916293) scale(1.3461614799723853)"><path d="M19.48,34.12c0.92-1.4,1.4-3.16,1.4-5.2c0-5.56-3.28-8.72-8.92-8.72l-9.24,0l0,12.04l9.4,0c2.12,0,3.4-1.2,3.4-3.32c0-1.12-0.4-2.04-1.2-2.8c-0.52-0.48-1.4-0.76-2.2-0.76l-6.68,0l0,4.2l1.44,0l0-2.8l5.24,0c1.16,0,1.96,0.76,1.96,2.16c0,1.24-0.64,1.88-1.96,1.88l-8,0l0-9.16l7.64,0c4.96,0,7.72,2.52,7.72,7.28c0,1.56-0.32,2.92-1,4.16l-0.4,0.64l-0.44,0.44l0.52,0.52l0.76,0.88c0.48,0.6,0.72,1.84,0.72,3.76c0,4.68-2.8,7.2-7.88,7.2l-10.32,0l0-26.36l-1.44,0l0,27.8l11.76,0c5.8,0,9.32-3.2,9.32-8.64c0-2.08-0.52-3.8-1.6-5.2z M12.72,45.36c1.4,0,2.72-0.52,3.96-1.6c1.16-1.16,1.76-2.56,1.76-4.16c0-2-0.64-3.56-1.96-4.72l-1.04-0.76c1.8-1,2.88-2.92,2.88-5.44c0-1.08-0.24-2.12-0.72-3.04c-0.96-1.84-2.68-2.84-4.88-2.84l-7.24,0l0,1.44l7.24,0c0.68,0,1.32,0.2,2,0.6c1.28,0.8,2.12,2.24,2.12,3.84c0,2.76-1.68,4.72-4.24,4.72l-9.84,0l0,1.44l9.84,0c2.68,0,4.4,1.84,4.4,4.76c0,1.6-0.68,2.84-2.08,3.68c-0.68,0.4-1.4,0.6-2.2,0.6l-8.6,0l0-6.32l8,0c1.4,0,2.08,0.64,2.08,1.88c0,1.28-0.68,1.92-2.08,1.92l-5.24,0l0-2.64l-1.44,0l0,4.08l6.68,0c1.56,0,2.6-0.56,3.16-1.72c0.24-0.44,0.36-1,0.36-1.64c0-2.08-1.4-3.36-3.52-3.36l-9.4,0l0,9.28l10,0z M44,46.56l-4.6,0l-5.52-10.28l-3.72,0.04l0,10.24l-4.04,0l0-26.56l-1.44,0l0,28l6.96,0l0-10.28l1.4,0l5.48,10.28l7.88,0l-5.52-10.32l-1.32,0.52z M34.48,21.44c5.8,0,9.08,2.6,9.08,7.36c0,4.32-2.6,6.96-7.12,7.44l-1.08,0.12l5,9.24l1.64,0l-4.36-8.12c4.8-0.84,7.36-3.76,7.36-8.68c0-1.64-0.36-3.12-1.04-4.44c-1.6-2.84-4.88-4.36-9.48-4.36l-7.08,0l0,25.56l1.44,0l0-24.12l5.64,0z M34.16,35.04c5.48,0,8.08-1.88,8.08-6.04c0-3.96-2.72-6.2-7.08-6.2l-5.04,0l0,4.2l4.6,0c2.12,0,3.2,0.6,3.2,1.8c0,1.4-1.32,2.08-4,2.08l-2.32,0l0-2.48l-1.48,0l0,3.92l3.8,0c3.56,0,5.44-1.24,5.44-3.52c0-0.72-0.16-1.28-0.52-1.72c-0.68-1-2.04-1.48-4.12-1.48l-3.12,0l0-1.36l3.56,0c3.56,0,5.64,1.72,5.64,4.76c0,3.16-2.12,4.64-6.64,4.64l-4,0l0,1.4l4,0z M48,20.08l1.44,0l0,26.48l15.32,0l0-4l-11.28,0l0-3.84l1.44,0l0,2.4l11.28,0l0,6.88l-18.2,0l0-27.92z M50.72,20.08l15.28,0l0,6.84l-9.6,0l0-1.44l8.16,0l0-3.96l-12.4,0l0,11.56l9.32,0l0,1.44l-10.76,0l0-14.44z M50.72,35.8l12.16,0l0-4l-9.4,0l0-9.08l9.68,0l0,1.44l-8.24,0l0,6.2l9.4,0l0,6.88l-12.16,0l0,6.64l11.2,0l0,1.44l-12.64,0l0-9.52z M72.68,45.52l1.76,0l1.4-3.36l10.44,0.04l2.56,5.8l7.36-0.04l-12.6-27.96l-2.56,0l-12.52,27.96l7.8,0l1.36-3.2l7.96,0l-0.6-1.36l-8.24,0l-1.28,3.16l-4.76,0l11.08-25.2l0.96,0l11.12,25.2l-4.24,0l-2.56-5.72l-12.4,0z M77.44,38.48l4.88-11.64l8.2,18.64l1.64,0l-9.84-21.92l-7.2,16.16l11.6,0l-4.4-9.72l-3.04,7.32l1.56,0l1.48-3.64l2.28,4.8l-7.16,0z M101.04,46.6l0-26.6l-1.44,0l0,28.04l7-0.04l0-11.44l10.96-13.88l-1.84,0l-10.6,13.36l0,10.56l-4.08,0z M105.08,29.28l1.48-1.84l0-7.44l-4.24,0l0,12.84l1.44-1.84l0-9.52l1.32,0l0,7.8z M123.04,20l-8.84,0l-11.88,15.24l0,10.32l1.44,0l0-9.84l11.12-14.24l5.2,0l-11.28,14.36l7.2,9.72l1.8,0l-7.16-9.72z M120.2,46.6l-5.08,0l-7.16-9.68l0,2.4l6.44,8.68l8.68,0l-9.8-13.16l-0.92,1.16z M139.08,48c-2.44,0-4.76-0.64-6.96-1.92c-4.4-2.52-7.12-7.16-7.12-12.12c0-2.48,0.64-4.8,1.92-7c2.52-4.32,7.24-7.04,12.16-7.04c2.44,0,4.8,0.64,7,1.88c4.4,2.56,7.04,7.32,7.04,12.16c0,2.44-0.64,4.72-1.88,6.92c-2.56,4.4-7.2,7.12-12.16,7.12z M139.08,21.32c-2.28,0-4.4,0.56-6.32,1.68c-3.88,2.24-6.28,6.36-6.28,10.96c0,2.28,0.56,4.4,1.68,6.32c2.24,3.88,6.32,6.28,10.92,6.28c2.28,0,4.4-0.56,6.36-1.68c3.88-2.24,6.28-6.32,6.28-10.92c0-2.28-0.56-4.4-1.68-6.36c-2.24-3.88-6.48-6.28-10.96-6.28z M139.08,45.28c-2,0-3.88-0.52-5.68-1.52c-3.56-2.04-5.76-5.76-5.76-9.8c0-2.04,0.52-3.92,1.52-5.68c2.04-3.52,5.64-5.6,9.92-5.6c2.16,0,4.12,0.48,5.84,1.44c3.44,1.92,5.44,5.52,5.44,9.84c0,2.04-0.48,3.92-1.44,5.64c-1.96,3.48-5.8,5.68-9.84,5.68z M139.08,24.08c-1.8,0-3.44,0.44-4.96,1.32c-3.08,1.76-4.96,4.92-4.96,8.56c0,1.76,0.44,3.4,1.36,4.92c1.76,3.08,4.88,5,8.56,5c1.8,0,3.44-0.44,4.96-1.36c3-1.76,4.92-5.04,4.92-8.56c0-1.8-0.44-3.48-1.32-5c-1.76-3.04-5.08-4.88-8.56-4.88z M139.08,42.68c-1.56,0-3.04-0.4-4.36-1.16c-2.68-1.56-4.4-4.52-4.4-7.56c0-1.56,0.4-3.04,1.2-4.4c1.56-2.72,4.32-4.28,7.56-4.28c1.56,0,3,0.4,4.32,1.16c2.68,1.56,4.24,4.28,4.24,7.52c0,1.6-0.36,3.04-1.08,4.36c-1.48,2.64-4.32,4.36-7.48,4.36z M139.08,26.72c-1.28,0-2.48,0.32-3.6,0.96c-2.24,1.32-3.68,3.68-3.68,6.28c0,1.28,0.32,2.48,0.96,3.56c1.28,2.24,3.6,3.6,6.32,3.6c1.32,0,2.56-0.32,3.64-0.96c2.2-1.28,3.52-3.64,3.52-6.2c0-1.32-0.32-2.52-0.96-3.64c-1.28-2.24-3.64-3.6-6.2-3.6z M167.64,48c-3.88,0-6.84-1-8.8-3c-1.92-1.92-2.92-4.76-2.92-8.12l0-16.84l6.8,0l0,16.84c0,3.04,1.48,4.32,4.72,4.32c3.16,0,4.88-1.56,4.88-4.32l0-16.84l4.12,0l0,16.84c0,2.12-0.56,4.12-1.64,5.56c-1.44,1.96-3.72,2.88-7.24,2.88c-2.04,0-3.68-0.28-4.92-0.88c-2.52-1.16-4.04-3.76-4.04-7.56l0-14.28l1.44,0l0,14.28c0,4.52,2.6,7,7.52,7s7.44-2.48,7.44-7l0-15.4l-1.24,0l0,15.4c0,3.52-2.36,5.76-6.32,5.76c-4,0-6.12-2.04-6.12-5.76l0-15.4l-3.96,0l0,15.4c0,6.36,3.52,9.68,10.28,9.68c3.52,0,5.92-0.84,7.56-2.56s2.52-4.2,2.52-7.12l0-16.84l1.44,0l0,16.84c0,3.36-1.04,6.16-2.96,8.12c-1.92,2-4.76,3-8.56,3z M190.64,25.2l9.56,0l0-3.8l-17,0l0,1.24l15.64,0l0,1.44l-17.08,0l0-4.12l19.88,0l0,6.68l-9.56,0l0,18.72l-1.44,0l0-20.16z M187.96,26.64l-6.2,0l0-1.44l7.64,0l0,21.32l4,0l0-18.64l1.44,0l0,20.12l-6.88,0l0-21.36z"/></g></svg>